# xmcd
#
# Track frame offsets:
#	150
#	15345
#	35667
#	49739
#	65539
#	81467
#	97585
#
# Disc length: 1529
#
# Revision: 3
# Processed by: cddbd v1.5.1PL0 Copyright (c) Steve Scherf et al.
# Submitted via: CDmax 2.0
# Normalized: r1:DSETVAR1,TDELIM( - );r2:TSWAP
#
DISCID=4d05f707
DTITLE=Various Artist - Songs For Shabfas - Volume III
DYEAR=2003
DGENRE=R and B
TTITLE0=Aretha Franklin - Dr. Feelgood
TTITLE1=Zakiya Hooker - Stones in my Pathway
TTITLE2=Kool and the Gang - Jungle Boogie
TTITLE3=Kool and the Gang - Hollywood Swingers
TTITLE4=Kool and the Gang - Ladies Night
TTITLE5=Kool and the Gang - Get down on it
TTITLE6=Kool and the Gang - Too Hot
EXTD=
EXTT0=
EXTT1=
EXTT2=
EXTT3=
EXTT4=
EXTT5=
EXTT6=
PLAYORDER=
